<svg id="그룹_19536" data-name="그룹 19536" xmlns="http://www.w3.org/2000/svg" width="18" height="18" viewBox="0 0 18 18">
  <path id="패스_2453" data-name="패스 2453" d="M443.631,202.4a9,9,0,1,1,9-9A9.01,9.01,0,0,1,443.631,202.4Z" transform="translate(-434.631 -184.395)" fill="#ffc31a"/>
  <path id="패스_2454" data-name="패스 2454" d="M454.991,203.7h-1.044l.6-2.225a.579.579,0,0,0-.473-.791.6.6,0,0,0-.807.485l-1.308,5.45h-.041l-1.446-5.3a.8.8,0,0,0-.807-.666.789.789,0,0,0-.807.68l-1.474,5.283h-.042l-1.266-5.422a.638.638,0,0,0-.862-.513.611.611,0,0,0-.487.819l.6,2.2h-1.042c-.334,0-.487.25-.487.583s.153.583.487.583h1.361l.68,2.49a.9.9,0,0,0,.96.721.886.886,0,0,0,.959-.721l1.377-4.881h.042l1.377,4.881a.9.9,0,0,0,.959.721.882.882,0,0,0,.96-.735l.669-2.476h1.359c.32,0,.473-.264.473-.583S455.311,203.7,454.991,203.7Z" transform="translate(-440.633 -195.022)" fill="#fff"/>
</svg>
